PathFileType	4	(X/Y/Z)	5_coords_data.trc
DataRate	CameraRate	NumFrames	NumMarkers	Units	OrigDataRate	OrigDataStartFrame	OrigNumFrames
30.0	30.0	9	21	m	30.0	21	70
Frame#	Time	THUMB_TIP	THUMB_IP	THUMB_MCP	THUMB_CMC	INDEX_TIP	INDEX_DIP	INDEX_PIP	INDEX_MCP	MIDDLE_TIP	MIDDLE_DIP	MIDDLE_PIP	MIDDLE_MCP	RING_TIP	RING_DIP	RING_PIP	RING_MCP	PINKY_TIP	PINKY_DIP	PINKY_PIP	PINKY_MCP	WRIST
X1	Y1	Z1	X2	Y2	Z2	X3	Y3	Z3	X4	Y4	Z4	X5	Y5	Z5	X6	Y6	Z6	X7	Y7	Z7	X8	Y8	Z8	X9	Y9	Z9	X10	Y10	Z10	X11	Y11	Z11	X12	Y12	Z12	X13	Y13	Z13	X14	Y14	Z14	X15	Y15	Z15	X16	Y16	Z16	X17	Y17	Z17	X18	Y18	Z18	X19	Y19	Z19	X20	Y20	Z20	X21	Y21	Z21
19	0.6666666666666637	0.5356190947057954	-0.016235545560179754	-0.11071737450945977	0.5177070338055546	-0.02037520310715052	-0.12450219622393528	0.48683847977484196	-0.018890484582997857	-0.12079436896838175	0.47322829322743887	-0.022372191068638247	-0.07845608201563961	0.5763279405126439	0.048481748086713905	-0.1401699112823941	0.5599378644202789	0.04608577672298669	-0.1328470206707103	0.5378063421478809	0.04321866969027244	-0.1212718207947121	0.5010843165984525	0.032790187025550754	-0.10239390557987081	0.5007318477967566	-0.02356455120656109	-0.10332751415799912	0.5151821967302258	-0.014575726084214757	-0.10952335458693682	0.5344948927983313	0.0066724821130009215	-0.11451764822956163	0.512888185471165	0.03193413941884021	-0.0846655663986319	0.5150236685420012	-0.027259417473007475	-0.09823413348469187	0.5285851605187004	-0.015407145834001768	-0.09901489744463524	0.5464434903401966	0.0019181074534110887	-0.1000616225822222	0.5251746840837214	0.022204418200381937	-0.0722978996563994	0.5955774640718804	0.02691970041777547	-0.09155348028799992	0.5805736267027555	0.020463711333424284	-0.08643439158554647	0.5617262951554279	0.013385899435395254	-0.08047664945607866	0.5306986039309808	-0.0015453991405016132	-0.06974249130940577	0.4622830810018609	-0.023011742144276925	-0.051989820119430985
20	0.6999999999999968	0.5355936655759952	-0.01630636488128867	-0.11072967021295038	0.5176875539463431	-0.020447580775696805	-0.12452175117349962	0.4868215174030579	-0.018937039095779096	-0.12080341122914133	0.47322672334069116	-0.022378388586074716	-0.07845688022496725	0.5763230772401785	0.048281803303418525	-0.14030719233642353	0.559940411558848	0.04592120431272989	-0.1329562850741248	0.5378218109179049	0.043097211904089716	-0.12134584125993658	0.5011015730631024	0.03275946327121537	-0.10241461892512062	0.5007196768851769	-0.023597239524834113	-0.1033198363737532	0.5151759807965789	-0.014628753963366714	-0.10953124072019033	0.5345050865781276	0.006594238823361964	-0.11456907724593919	0.5129352180578666	0.03186927433397296	-0.084701682432263	0.5149653233408348	-0.027294155823680777	-0.0982172571189294	0.5285775969523723	-0.015506143198003197	-0.09908256946803234	0.5464509928240483	0.0018042958054419467	-0.10011717109299206	0.5252154723727167	0.022123314395488147	-0.07235188721728786	0.5956873558985027	0.02665187184439849	-0.09155426037676218	0.5806603733599981	0.020253388678612927	-0.08643086219151105	0.5617846504001036	0.013236592030837158	-0.08049085659007621	0.5307116407692017	-0.0016095336139647087	-0.06976965904424931	0.4622830810018608	-0.023011742144276925	-0.051989820119430985
21	0.7333333333333302	0.5355864192521474	-0.01639315413646608	-0.11078171998323189	0.5176536619876443	-0.02053921622238508	-0.12453767818584766	0.4867904391292456	-0.0189801600815398	-0.12081600937434536	0.47323141699386706	-0.022385631707753206	-0.07845511134638361	0.5763383215650351	0.04806401902863128	-0.14044816807243524	0.5599598920752229	0.04574519624608375	-0.13307455916292615	0.5378522498790607	0.04296663721190791	-0.12143232573372245	0.5011384335362707	0.03270342340535187	-0.10244816849910136	0.5007335901157745	-0.023678471592848083	-0.10333756316437526	0.5151701447015694	-0.014676469746198628	-0.10954641607326944	0.5345188959891842	0.006518587947762389	-0.1146262687246456	0.5129774753126908	0.03180340920452368	-0.08474662799300398	0.5149246514464942	-0.0273453248146161	-0.09820627956679673	0.5285663838131901	-0.015596144831084124	-0.09913359167715688	0.5464521645031836	0.0017011696626373918	-0.10017365870131714	0.5252531986019034	0.02204840361121152	-0.07240110481518058	0.595735087521675	0.026459991360863522	-0.0916346146872038	0.5806948919676105	0.02010736305745453	-0.08649295820954786	0.5618104466639544	0.013117428311090806	-0.08054900692990227	0.5307274431714611	-0.0017019005181763691	-0.06981970881978791	0.4622830810018609	-0.023011742144276925	-0.051989820119430985
22	0.7666666666666633	0.5355675847773709	-0.016464818185493724	-0.11082696555328381	0.5176203167660927	-0.0206025890124662	-0.12456648605127808	0.48676020792511043	-0.019021289931935415	-0.12082841495234926	0.4732334814896859	-0.022391883055512873	-0.07845440435697981	0.5763465908260573	0.047854806637732394	-0.14057452198843762	0.5599714877354853	0.045575504215951135	-0.13318122913320712	0.5378732514374936	0.042840037714065915	-0.12151096741655334	0.5011607331044655	0.03265883171288603	-0.1024801992762863	0.5007331050992241	-0.023731443707956545	-0.10335052829609331	0.5151666061972826	-0.014736970144288153	-0.1095773646810335	0.5345259651235091	0.006442637939120199	-0.11468118417223444	0.5130123567230491	0.03174258855966988	-0.08479431292097425	0.5148716473406236	-0.02738878245192078	-0.09820692079740653	0.5285234698095471	-0.015654509405773787	-0.09917365724311819	0.5464466290718494	0.0016024358641167913	-0.10024051290821695	0.5252840122433667	0.02197807668278201	-0.0724610646739634	0.5957200675473258	0.026352491651555232	-0.09179699596722773	0.5806863690011763	0.020010238078918607	-0.08662362881962615	0.5618082594738913	0.013022592947950773	-0.08065690315143104	0.5307416910715873	-0.0017854795180807792	-0.06986464812545459	0.4622830810018609	-0.023011742144276925	-0.051989820119430985
23	0.7999999999999965	0.5355590582158557	-0.016544641982691732	-0.1108735712117653	0.51759165145299	-0.020680620036199304	-0.12458728623573444	0.48673402735531845	-0.01907128425996857	-0.1208406779821084	0.4732253119560209	-0.02240646860178913	-0.07845812079560946	0.576373125544301	0.04760940794647056	-0.1406979155852711	0.5600020881136726	0.04536775690470146	-0.1332841355742443	0.5379098933064906	0.04269026022507305	-0.12158901808308148	0.5011933069624559	0.03260388472058401	-0.10251564894117333	0.5007310305274314	-0.023857294735875945	-0.1033739243689201	0.5151373988673096	-0.014827257700366803	-0.1096121117974195	0.5345161964656414	0.0063302299607968515	-0.11473387609408524	0.5130607275395282	0.03167062702478518	-0.08483947777600553	0.5148189805592888	-0.02740531473364749	-0.09819160141048275	0.5285078502946373	-0.01572040414902387	-0.09922972953263853	0.5464512345953124	0.001514702418491276	-0.10030956305901598	0.5253148970546505	0.02190688128709517	-0.0725222438223917	0.5956644564276145	0.026293213308314245	-0.09201579602639695	0.5806469233559518	0.019946805836676795	-0.0868007396848543	0.561787666158672	0.01294531711840552	-0.08079078189009642	0.5307572667191917	-0.001871595901662526	-0.06990699347879245	0.462283081001861	-0.023011742144276925	-0.051989820119430985
24	0.8333333333333297	0.5355414220080678	-0.016636596416247984	-0.11092519689115661	0.5175456232938785	-0.020762285997603658	-0.12460474052816	0.48668907652062354	-0.019131163891567715	-0.12085868101112988	0.4732266818431565	-0.022421685603491448	-0.07845789804180883	0.57643305247421	0.04734128709686264	-0.14080368612544022	0.5600627611901876	0.04514058786109376	-0.13337600235794256	0.5379741054962747	0.04251920504256279	-0.12166150387296744	0.5012483920799081	0.032529753663465555	-0.102554726823879	0.5007814531345223	-0.024064596499373925	-0.10341792895503932	0.5151259895926219	-0.01491068258780437	-0.10961793975356413	0.5345261980719602	0.006215335479198281	-0.11478831900376284	0.5131174202252653	0.03158855042374564	-0.08488828362771919	0.5148030012743253	-0.027494032726903928	-0.09821318512375515	0.5284738821304789	-0.01578741263521416	-0.09924374936032565	0.5464534129315856	0.0014073361515876126	-0.10036493860877396	0.5253527019791135	0.021830413277656557	-0.07257323567421323	0.5955899189263235	0.026256498862771982	-0.09225125416777408	0.5805954521106391	0.019890057863104993	-0.0869944115877554	0.5617590823709807	0.012873232530477008	-0.08093080240820977	0.5307785282393535	-0.0019707629143231875	-0.06994242145685609	0.4622830810018608	-0.023011742144276925	-0.051989820119430985
25	0.8666666666666629	0.5355399080114307	-0.016703572071005035	-0.1109436933375523	0.5175371441309747	-0.020818995078096925	-0.12461716349465762	0.4866819251196973	-0.019180127050120344	-0.12086355571640055	0.4732357097171501	-0.022427122799713428	-0.07845428420708989	0.5764812768172551	0.04713303514840178	-0.1408641201653756	0.5601115165533928	0.04496131782887153	-0.1334267420798052	0.5380242509997124	0.04238366601529747	-0.12169992475841812	0.5012861892172616	0.032493736436601195	-0.10256513436507277	0.5007658766970344	-0.024141805718721987	-0.10338465298233843	0.5150937020984915	-0.01498006140203284	-0.10961167958746641	0.5345237568463721	0.0061104256900670895	-0.1148149359440499	0.5131771179795817	0.03152332156222859	-0.08490417444452425	0.5147741940286992	-0.02755113546815674	-0.09821482466235837	0.5284398612627625	-0.015838975645197317	-0.09925157503217147	0.5464516636670306	0.0013204311946594105	-0.10039600067584134	0.5253939734209323	0.021765569414430475	-0.07258789324880058	0.5954935809951091	0.026284639521517827	-0.09246917030049717	0.5805248771529242	0.019890958486251942	-0.08717211941304673	0.5617193796883464	0.012841305405181691	-0.08105103490568097	0.5307994968674058	-0.002043126636037673	-0.06994707254309923	0.4622830810018609	-0.023011742144276925	-0.051989820119430985
26	0.8999999999999961	0.5354695982904382	-0.01676049067583496	-0.11098845907030158	0.5174668078724072	-0.02087217762180421	-0.12466301820845296	0.4866146067658612	-0.019226045444910134	-0.12088784460483709	0.4732284229390049	-0.022449358513736917	-0.07845778055334238	0.5764977810174441	0.047005851041660385	-0.14091986995719627	0.5601218476339956	0.044840485089467974	-0.13349423893256646	0.538033196122035	0.04227101761247126	-0.12176823602160744	0.5012918973387965	0.03245771824374594	-0.10260023630279003	0.500794384671925	-0.024305567983964715	-0.10340831157881532	0.5150696218700651	-0.015058608269246265	-0.1096301552743136	0.5345054448223094	0.006020847452417821	-0.11485651946439998	0.5132099194865468	0.03147062743739931	-0.08494068385197012	0.5147541473808047	-0.02762354327342642	-0.09823717250614614	0.5283829598127155	-0.01586758620732548	-0.09926330366529859	0.5464268593445261	0.0012562222602907624	-0.10043499144381754	0.5254168612105078	0.021724205566352905	-0.07260762233009574	0.5953759351172739	0.026344674317287875	-0.09272406456561325	0.5804363127570877	0.01991232354395972	-0.087391846709609	0.561666210231105	0.012819539862235774	-0.08121222780482479	0.5308068116302533	-0.002085799187884263	-0.06996892594128301	0.462283081001861	-0.023011742144276925	-0.051989820119430985
27	0.9333333333333294	0.5354500545556472	-0.01680832895493417	-0.11102012996486518	0.517440527161579	-0.020945052113536144	-0.12467825738231854	0.4865896449519287	-0.019283606335930348	-0.12089901608089737	0.47322773471091917	-0.022469671552179438	-0.07845848894999322	0.5765403899109666	0.046951736029087865	-0.14092500309640127	0.5601517790487361	0.044752201561843896	-0.13353748104000193	0.5380500283437128	0.04216681852549187	-0.12183969307268318	0.5013117779802686	0.032410211350214546	-0.10263694142974884	0.5007626201185722	-0.024376040508190644	-0.10341356966994644	0.5150159636376164	-0.015071629911748874	-0.10959985627670404	0.5344977684994094	0.005950441562030673	-0.1148858131700508	0.5132271988933519	0.03143140940976563	-0.0849787727418079	0.514722067446959	-0.02762230159683704	-0.09820010216865777	0.528351305541554	-0.01587004673913489	-0.09926235200766226	0.5464211578773159	0.001222981116033639	-0.10048252179346684	0.5254238020386088	0.021695377196496446	-0.07264885727534479	0.5952555495665296	0.02642641922251926	-0.09295552124524126	0.5803459597237086	0.019957808413149813	-0.0875832586943455	0.5616074435218578	0.012835183764843605	-0.08134240557379296	0.5308109178810481	-0.0021176639856967383	-0.06999032190584367	0.4622830810018609	-0.023011742144276925	-0.051989820119430985
